# xmcd
#
# Track frame offsets: 
#        150
#        8387
#        23312
#        34050
#        51600
#        59650
#        72025
#        83575
#        97637
#        120462
#        130925
#        139900
#        152875
#        159500
#        172125
#
# Disc length: 2385 seconds
#
# Revision: 0
# Processed by: cddbd v1.5.2PL0 Copyright (c) Steve Scherf et al.
# Submitted via: ExactAudioCopyFreeDBPlugin 1.0
#
DISCID=b8094f0f
DTITLE=Big Joe Williams - Blues Classics
DYEAR=1900
DGENRE=Blues
TTITLE0=Tailer Made Baby
TTITLE1=Prison Bound Blues
TTITLE2=Dark Road Blues
TTITLE3=Delta Blues
TTITLE4=Lord Have Mercy
TTITLE5=Don't Your House Look Lonesome
TTITLE6=Deal 'em On Down
TTITLE7=Snitchin' Blues
TTITLE8=Lonesome Train Blues
TTITLE9=No More Whiskey
TTITLE10=Liza Jane Blues
TTITLE11=Somebody's Been Borrowin'
TTITLE12=Jesus Gonna Make Up Me
TTITLE13=Texas Blues
TTITLE14=When I Lay My Burden Down
EXTD=
EXTT0=
EXTT1=
EXTT2=
EXTT3=
EXTT4=
EXTT5=
EXTT6=
EXTT7=
EXTT8=
EXTT9=
EXTT10=
EXTT11=
EXTT12=
EXTT13=
EXTT14=
PLAYORDER=
